<mxfile modified="2022-10-26T08:55:47.638Z" host="Electron" agent="5.0 (Windows NT 10.0; Win64; x64) AppleWebKit/537.36 (KHTML, like Gecko) draw.io/20.3.0 Chrome/104.0.5112.114 Electron/20.1.3 Safari/537.36" etag="3T9Arkfm6Acc1dg6JKWq" compressed="false" version="20.3.0" type="device">
  <diagram id="4bgXXZZWLKDrS-0fqXVA" name="Group Management">
    <mxGraphModel dx="539" dy="379" grid="1" gridSize="10" guides="1" tooltips="1" connect="1" arrows="1" fold="1" page="1" pageScale="1" pageWidth="827" pageHeight="1169" math="0" shadow="0">
      <root>
        <mxCell id="vj9NFNpsctyDdZJHX6hg-0" />
        <mxCell id="wERdTFQBSSwt_41Hwb2m-4" value="Diagram/Use Cases" parent="vj9NFNpsctyDdZJHX6hg-0" />
        <mxCell id="f7oh_EkDFGOVIX88EDKd-0" value="&amp;lt;&amp;lt;actor&amp;gt;&amp;gt;&lt;br&gt;&lt;b&gt;Authorised&lt;br&gt;User&lt;br&gt;&lt;/b&gt;" style="text;html=1;align=center;verticalAlign=middle;dashed=0;fillColor=#ffffff;strokeColor=#000000;" parent="wERdTFQBSSwt_41Hwb2m-4" vertex="1">
          <mxGeometry x="120" y="240" width="80" height="40" as="geometry" />
        </mxCell>
        <mxCell id="f7oh_EkDFGOVIX88EDKd-1" value="" style="fontStyle=1;align=left;verticalAlign=top;childLayout=stackLayout;horizontal=1;horizontalStack=0;resizeParent=1;resizeParentMax=0;resizeLast=0;marginBottom=0;" parent="wERdTFQBSSwt_41Hwb2m-4" vertex="1">
          <mxGeometry x="240" y="120" width="120" height="40" as="geometry" />
        </mxCell>
        <mxCell id="f7oh_EkDFGOVIX88EDKd-2" value="&lt;p style=&quot;line-height: 0.9;&quot;&gt;List Group&lt;br&gt;Members&lt;/p&gt;" style="html=1;align=left;spacingLeft=4;verticalAlign=middle;strokeColor=none;fillColor=none;fontStyle=1;spacingTop=2;" parent="f7oh_EkDFGOVIX88EDKd-1" vertex="1">
          <mxGeometry width="120" height="20" as="geometry" />
        </mxCell>
        <mxCell id="f7oh_EkDFGOVIX88EDKd-3" value="" style="shape=ellipse;" parent="f7oh_EkDFGOVIX88EDKd-2" vertex="1">
          <mxGeometry x="1" width="20" height="10" relative="1" as="geometry">
            <mxPoint x="-25" y="5" as="offset" />
          </mxGeometry>
        </mxCell>
        <mxCell id="f7oh_EkDFGOVIX88EDKd-4" value="" style="line;strokeWidth=1;fillColor=none;align=left;verticalAlign=middle;spacingTop=-1;spacingLeft=3;spacingRight=3;rotatable=0;labelPosition=right;points=[];portConstraint=eastwest;" parent="f7oh_EkDFGOVIX88EDKd-1" vertex="1">
          <mxGeometry y="20" width="120" height="8" as="geometry" />
        </mxCell>
        <mxCell id="f7oh_EkDFGOVIX88EDKd-5" value="Filtered,Sorted,Paged,Summaries" style="html=1;align=left;spacingLeft=4;verticalAlign=top;strokeColor=none;fillColor=none;fontSize=8;spacing=-2;" parent="f7oh_EkDFGOVIX88EDKd-1" vertex="1">
          <mxGeometry y="28" width="120" height="12" as="geometry" />
        </mxCell>
        <mxCell id="f7oh_EkDFGOVIX88EDKd-6" value="" style="endArrow=open;endFill=1;endSize=12;html=1;strokeColor=#000000;fontSize=12;entryX=0;entryY=1;entryDx=0;entryDy=0;exitX=1;exitY=0.5;exitDx=0;exitDy=0;" parent="wERdTFQBSSwt_41Hwb2m-4" source="f7oh_EkDFGOVIX88EDKd-0" target="f7oh_EkDFGOVIX88EDKd-2" edge="1">
          <mxGeometry width="160" relative="1" as="geometry">
            <mxPoint x="200" y="260" as="sourcePoint" />
            <mxPoint x="250.0000000000001" y="310" as="targetPoint" />
          </mxGeometry>
        </mxCell>
        <mxCell id="f7oh_EkDFGOVIX88EDKd-14" value="" style="fontStyle=1;align=left;verticalAlign=top;childLayout=stackLayout;horizontal=1;horizontalStack=0;resizeParent=1;resizeParentMax=0;resizeLast=0;marginBottom=0;" parent="wERdTFQBSSwt_41Hwb2m-4" vertex="1">
          <mxGeometry x="240" y="200" width="120" height="40" as="geometry" />
        </mxCell>
        <mxCell id="f7oh_EkDFGOVIX88EDKd-15" value="&lt;p style=&quot;line-height: 0.9;&quot;&gt;View Group&lt;br&gt;Member&lt;/p&gt;" style="html=1;align=left;spacingLeft=4;verticalAlign=middle;strokeColor=none;fillColor=none;fontStyle=1;spacingTop=2;" parent="f7oh_EkDFGOVIX88EDKd-14" vertex="1">
          <mxGeometry width="120" height="20" as="geometry" />
        </mxCell>
        <mxCell id="f7oh_EkDFGOVIX88EDKd-16" value="" style="shape=ellipse;" parent="f7oh_EkDFGOVIX88EDKd-15" vertex="1">
          <mxGeometry x="1" width="20" height="10" relative="1" as="geometry">
            <mxPoint x="-25" y="5" as="offset" />
          </mxGeometry>
        </mxCell>
        <mxCell id="f7oh_EkDFGOVIX88EDKd-17" value="" style="line;strokeWidth=1;fillColor=none;align=left;verticalAlign=middle;spacingTop=-1;spacingLeft=3;spacingRight=3;rotatable=0;labelPosition=right;points=[];portConstraint=eastwest;" parent="f7oh_EkDFGOVIX88EDKd-14" vertex="1">
          <mxGeometry y="20" width="120" height="8" as="geometry" />
        </mxCell>
        <mxCell id="f7oh_EkDFGOVIX88EDKd-18" value="ie View Person" style="html=1;align=left;spacingLeft=4;verticalAlign=top;strokeColor=none;fillColor=none;fontSize=8;spacing=-2;" parent="f7oh_EkDFGOVIX88EDKd-14" vertex="1">
          <mxGeometry y="28" width="120" height="12" as="geometry" />
        </mxCell>
        <mxCell id="f7oh_EkDFGOVIX88EDKd-19" value="" style="fontStyle=1;align=left;verticalAlign=top;childLayout=stackLayout;horizontal=1;horizontalStack=0;resizeParent=1;resizeParentMax=0;resizeLast=0;marginBottom=0;" parent="wERdTFQBSSwt_41Hwb2m-4" vertex="1">
          <mxGeometry x="240" y="280" width="120" height="40" as="geometry" />
        </mxCell>
        <mxCell id="f7oh_EkDFGOVIX88EDKd-20" value="&lt;p style=&quot;line-height: 0.9;&quot;&gt;List &lt;br&gt;Group Roles&lt;/p&gt;" style="html=1;align=left;spacingLeft=4;verticalAlign=middle;strokeColor=none;fillColor=none;fontStyle=1;spacingTop=2;" parent="f7oh_EkDFGOVIX88EDKd-19" vertex="1">
          <mxGeometry width="120" height="20" as="geometry" />
        </mxCell>
        <mxCell id="f7oh_EkDFGOVIX88EDKd-21" value="" style="shape=ellipse;" parent="f7oh_EkDFGOVIX88EDKd-20" vertex="1">
          <mxGeometry x="1" width="20" height="10" relative="1" as="geometry">
            <mxPoint x="-25" y="5" as="offset" />
          </mxGeometry>
        </mxCell>
        <mxCell id="f7oh_EkDFGOVIX88EDKd-22" value="" style="line;strokeWidth=1;fillColor=none;align=left;verticalAlign=middle;spacingTop=-1;spacingLeft=3;spacingRight=3;rotatable=0;labelPosition=right;points=[];portConstraint=eastwest;" parent="f7oh_EkDFGOVIX88EDKd-19" vertex="1">
          <mxGeometry y="20" width="120" height="8" as="geometry" />
        </mxCell>
        <mxCell id="f7oh_EkDFGOVIX88EDKd-23" value="Filtered,Sorted,Paged,Summaries" style="html=1;align=left;spacingLeft=4;verticalAlign=top;strokeColor=none;fillColor=none;fontSize=8;spacing=-2;" parent="f7oh_EkDFGOVIX88EDKd-19" vertex="1">
          <mxGeometry y="28" width="120" height="12" as="geometry" />
        </mxCell>
        <mxCell id="f7oh_EkDFGOVIX88EDKd-24" value="" style="endArrow=open;endFill=1;endSize=12;html=1;strokeColor=#000000;fontSize=12;entryX=0;entryY=1;entryDx=0;entryDy=0;exitX=1;exitY=0.5;exitDx=0;exitDy=0;" parent="wERdTFQBSSwt_41Hwb2m-4" source="f7oh_EkDFGOVIX88EDKd-0" target="f7oh_EkDFGOVIX88EDKd-15" edge="1">
          <mxGeometry width="160" relative="1" as="geometry">
            <mxPoint x="210" y="310" as="sourcePoint" />
            <mxPoint x="250" y="230" as="targetPoint" />
          </mxGeometry>
        </mxCell>
        <mxCell id="f7oh_EkDFGOVIX88EDKd-25" value="" style="endArrow=open;endFill=1;endSize=12;html=1;strokeColor=#000000;fontSize=12;entryX=0;entryY=1;entryDx=0;entryDy=0;exitX=1;exitY=0.5;exitDx=0;exitDy=0;" parent="wERdTFQBSSwt_41Hwb2m-4" source="f7oh_EkDFGOVIX88EDKd-0" target="f7oh_EkDFGOVIX88EDKd-20" edge="1">
          <mxGeometry width="160" relative="1" as="geometry">
            <mxPoint x="200" y="300" as="sourcePoint" />
            <mxPoint x="200" y="390" as="targetPoint" />
          </mxGeometry>
        </mxCell>
        <mxCell id="PINw93PATPmj0uGUlSGV-0" value="" style="fontStyle=1;align=left;verticalAlign=top;childLayout=stackLayout;horizontal=1;horizontalStack=0;resizeParent=1;resizeParentMax=0;resizeLast=0;marginBottom=0;" parent="wERdTFQBSSwt_41Hwb2m-4" vertex="1">
          <mxGeometry x="240" y="360" width="120" height="40" as="geometry" />
        </mxCell>
        <mxCell id="PINw93PATPmj0uGUlSGV-1" value="&lt;p style=&quot;line-height: 0.9;&quot;&gt;View &lt;br&gt;Role Person&lt;/p&gt;" style="html=1;align=left;spacingLeft=4;verticalAlign=middle;strokeColor=none;fillColor=none;fontStyle=1;spacingTop=2;" parent="PINw93PATPmj0uGUlSGV-0" vertex="1">
          <mxGeometry width="120" height="20" as="geometry" />
        </mxCell>
        <mxCell id="PINw93PATPmj0uGUlSGV-2" value="" style="shape=ellipse;" parent="PINw93PATPmj0uGUlSGV-1" vertex="1">
          <mxGeometry x="1" width="20" height="10" relative="1" as="geometry">
            <mxPoint x="-25" y="5" as="offset" />
          </mxGeometry>
        </mxCell>
        <mxCell id="PINw93PATPmj0uGUlSGV-3" value="" style="line;strokeWidth=1;fillColor=none;align=left;verticalAlign=middle;spacingTop=-1;spacingLeft=3;spacingRight=3;rotatable=0;labelPosition=right;points=[];portConstraint=eastwest;" parent="PINw93PATPmj0uGUlSGV-0" vertex="1">
          <mxGeometry y="20" width="120" height="8" as="geometry" />
        </mxCell>
        <mxCell id="PINw93PATPmj0uGUlSGV-4" value="..." style="html=1;align=left;spacingLeft=4;verticalAlign=top;strokeColor=none;fillColor=none;fontSize=8;spacing=-2;" parent="PINw93PATPmj0uGUlSGV-0" vertex="1">
          <mxGeometry y="28" width="120" height="12" as="geometry" />
        </mxCell>
        <mxCell id="PINw93PATPmj0uGUlSGV-5" value="Note&lt;br&gt;In general, one doesn&#39;t Add Persons&lt;br&gt;to Groups - one Invites a&amp;nbsp;Person to a Role&lt;br&gt;in the Group. &lt;br&gt;But a delegated responsibility Person (eg: Parent or Teacher) can accept an invitation&lt;br&gt;on a ward&#39;s behalf.&amp;nbsp;" style="shape=note;whiteSpace=wrap;html=1;size=14;verticalAlign=top;align=left;spacingTop=-6;strokeWidth=1;fillColor=none;fontSize=12;" parent="wERdTFQBSSwt_41Hwb2m-4" vertex="1">
          <mxGeometry x="440" y="160" width="240" height="100" as="geometry" />
        </mxCell>
        <mxCell id="PINw93PATPmj0uGUlSGV-6" value="" style="endArrow=open;endFill=1;endSize=12;html=1;strokeColor=#000000;fontSize=12;entryX=0;entryY=1;entryDx=0;entryDy=0;exitX=1;exitY=0.5;exitDx=0;exitDy=0;" parent="wERdTFQBSSwt_41Hwb2m-4" source="f7oh_EkDFGOVIX88EDKd-0" target="PINw93PATPmj0uGUlSGV-1" edge="1">
          <mxGeometry width="160" relative="1" as="geometry">
            <mxPoint x="210" y="330" as="sourcePoint" />
            <mxPoint x="250" y="330" as="targetPoint" />
          </mxGeometry>
        </mxCell>
        <mxCell id="PINw93PATPmj0uGUlSGV-7" style="edgeStyle=orthogonalEdgeStyle;rounded=0;orthogonalLoop=1;jettySize=auto;html=1;entryX=0.5;entryY=0;entryDx=0;entryDy=0;" parent="wERdTFQBSSwt_41Hwb2m-4" source="f7oh_EkDFGOVIX88EDKd-5" target="f7oh_EkDFGOVIX88EDKd-15" edge="1">
          <mxGeometry relative="1" as="geometry" />
        </mxCell>
        <mxCell id="83SIEyDUWd3lB2kXbmvs-0" style="edgeStyle=orthogonalEdgeStyle;rounded=0;orthogonalLoop=1;jettySize=auto;html=1;entryX=0.5;entryY=0;entryDx=0;entryDy=0;" edge="1" parent="wERdTFQBSSwt_41Hwb2m-4" source="f7oh_EkDFGOVIX88EDKd-23" target="PINw93PATPmj0uGUlSGV-1">
          <mxGeometry relative="1" as="geometry" />
        </mxCell>
        <mxCell id="83SIEyDUWd3lB2kXbmvs-1" value="" style="fontStyle=1;align=left;verticalAlign=top;childLayout=stackLayout;horizontal=1;horizontalStack=0;resizeParent=1;resizeParentMax=0;resizeLast=0;marginBottom=0;" vertex="1" parent="wERdTFQBSSwt_41Hwb2m-4">
          <mxGeometry x="440" y="280" width="120" height="40" as="geometry" />
        </mxCell>
        <mxCell id="83SIEyDUWd3lB2kXbmvs-2" value="&lt;p style=&quot;line-height: 0.9;&quot;&gt;View Person&lt;/p&gt;" style="html=1;align=left;spacingLeft=4;verticalAlign=middle;strokeColor=none;fillColor=none;fontStyle=1;spacingTop=2;" vertex="1" parent="83SIEyDUWd3lB2kXbmvs-1">
          <mxGeometry width="120" height="20" as="geometry" />
        </mxCell>
        <mxCell id="83SIEyDUWd3lB2kXbmvs-3" value="" style="shape=ellipse;" vertex="1" parent="83SIEyDUWd3lB2kXbmvs-2">
          <mxGeometry x="1" width="20" height="10" relative="1" as="geometry">
            <mxPoint x="-25" y="5" as="offset" />
          </mxGeometry>
        </mxCell>
        <mxCell id="83SIEyDUWd3lB2kXbmvs-4" value="" style="line;strokeWidth=1;fillColor=none;align=left;verticalAlign=middle;spacingTop=-1;spacingLeft=3;spacingRight=3;rotatable=0;labelPosition=right;points=[];portConstraint=eastwest;" vertex="1" parent="83SIEyDUWd3lB2kXbmvs-1">
          <mxGeometry y="20" width="120" height="8" as="geometry" />
        </mxCell>
        <mxCell id="83SIEyDUWd3lB2kXbmvs-5" value="ie View Person" style="html=1;align=left;spacingLeft=4;verticalAlign=top;strokeColor=none;fillColor=none;fontSize=8;spacing=-2;" vertex="1" parent="83SIEyDUWd3lB2kXbmvs-1">
          <mxGeometry y="28" width="120" height="12" as="geometry" />
        </mxCell>
        <mxCell id="83SIEyDUWd3lB2kXbmvs-7" value="is" style="rounded=0;orthogonalLoop=1;jettySize=auto;html=1;entryX=0;entryY=0;entryDx=0;entryDy=0;entryPerimeter=0;endArrow=block;endFill=0;exitX=1;exitY=1;exitDx=0;exitDy=0;" edge="1" parent="wERdTFQBSSwt_41Hwb2m-4" source="f7oh_EkDFGOVIX88EDKd-15" target="83SIEyDUWd3lB2kXbmvs-4">
          <mxGeometry relative="1" as="geometry" />
        </mxCell>
        <mxCell id="83SIEyDUWd3lB2kXbmvs-8" value="is" style="edgeStyle=none;rounded=0;orthogonalLoop=1;jettySize=auto;html=1;exitX=1;exitY=1;exitDx=0;exitDy=0;endArrow=block;endFill=0;entryX=0;entryY=1;entryDx=0;entryDy=0;" edge="1" parent="wERdTFQBSSwt_41Hwb2m-4" source="PINw93PATPmj0uGUlSGV-1" target="83SIEyDUWd3lB2kXbmvs-2">
          <mxGeometry relative="1" as="geometry">
            <mxPoint x="440" y="260" as="targetPoint" />
          </mxGeometry>
        </mxCell>
        <mxCell id="gRzEKIzDPof4qPkzU5pQ-1" value="Title/Diagram" parent="vj9NFNpsctyDdZJHX6hg-0" />
        <mxCell id="gRzEKIzDPof4qPkzU5pQ-0" value="&lt;font style=&quot;font-size: 12px&quot;&gt;&lt;span style=&quot;font-size: 12px&quot;&gt;Diagram: Base System Logical Module -&amp;nbsp;&lt;/span&gt;&lt;span style=&quot;font-size: 12px&quot;&gt;Functionality - Group Membership Management&lt;br&gt;&lt;/span&gt;&lt;/font&gt;" style="text;strokeColor=none;fillColor=none;html=1;fontSize=12;fontStyle=2;verticalAlign=middle;align=left;shadow=0;glass=0;comic=0;opacity=30;fontColor=#808080;" parent="gRzEKIzDPof4qPkzU5pQ-1" vertex="1">
          <mxGeometry x="120" y="420" width="520" height="20" as="geometry" />
        </mxCell>
        <mxCell id="tL2itmjlvSeu3DFbBuZW-0" value="About" parent="vj9NFNpsctyDdZJHX6hg-0" />
      </root>
    </mxGraphModel>
  </diagram>
</mxfile>
